<mxfile host="Electron" agent="Mozilla/5.0 (Windows NT 10.0; Win64; x64) AppleWebKit/537.36 (KHTML, like Gecko) draw.io/24.7.5 Chrome/126.0.6478.183 Electron/31.3.0 Safari/537.36" version="24.7.5">
  <diagram name="Page-1" id="5y4UX8B6U2edvqAeGiKh">
    <mxGraphModel dx="1050" dy="629" grid="1" gridSize="10" guides="1" tooltips="1" connect="1" arrows="1" fold="1" page="1" pageScale="1" pageWidth="827" pageHeight="1169" math="0" shadow="0">
      <root>
        <mxCell id="0" />
        <mxCell id="1" parent="0" />
        <mxCell id="Fx1tfLLrDtZJdJhDL7sR-4" value="Github" style="swimlane;whiteSpace=wrap;html=1;fillColor=#f5f5f5;fontColor=#333333;strokeColor=#666666;" parent="1" vertex="1">
          <mxGeometry x="510" y="120" width="310" height="360" as="geometry">
            <mxRectangle x="510" y="120" width="80" height="30" as="alternateBounds" />
          </mxGeometry>
        </mxCell>
        <mxCell id="Fx1tfLLrDtZJdJhDL7sR-12" value="&lt;font style=&quot;font-size: 13px;&quot;&gt;Remote Repository&lt;/font&gt;" style="rounded=1;whiteSpace=wrap;html=1;fillColor=#dae8fc;strokeColor=#6c8ebf;" parent="Fx1tfLLrDtZJdJhDL7sR-4" vertex="1">
          <mxGeometry x="180" y="190" width="100" height="60" as="geometry" />
        </mxCell>
        <mxCell id="Fx1tfLLrDtZJdJhDL7sR-24" style="edgeStyle=orthogonalEdgeStyle;rounded=0;orthogonalLoop=1;jettySize=auto;html=1;exitX=1;exitY=0.5;exitDx=0;exitDy=0;entryX=0.5;entryY=0;entryDx=0;entryDy=0;" parent="Fx1tfLLrDtZJdJhDL7sR-4" source="Fx1tfLLrDtZJdJhDL7sR-19" target="Fx1tfLLrDtZJdJhDL7sR-12" edge="1">
          <mxGeometry relative="1" as="geometry" />
        </mxCell>
        <mxCell id="Fx1tfLLrDtZJdJhDL7sR-19" value="User: Bluebolt" style="shape=step;perimeter=stepPerimeter;whiteSpace=wrap;html=1;fixedSize=1;fillColor=#fff2cc;strokeColor=#d6b656;" parent="Fx1tfLLrDtZJdJhDL7sR-4" vertex="1">
          <mxGeometry x="10" y="120" width="140" height="60" as="geometry" />
        </mxCell>
        <mxCell id="Fx1tfLLrDtZJdJhDL7sR-25" style="edgeStyle=orthogonalEdgeStyle;rounded=0;orthogonalLoop=1;jettySize=auto;html=1;exitX=1;exitY=0.5;exitDx=0;exitDy=0;entryX=0.5;entryY=1;entryDx=0;entryDy=0;" parent="Fx1tfLLrDtZJdJhDL7sR-4" source="Fx1tfLLrDtZJdJhDL7sR-20" target="Fx1tfLLrDtZJdJhDL7sR-12" edge="1">
          <mxGeometry relative="1" as="geometry" />
        </mxCell>
        <mxCell id="Fx1tfLLrDtZJdJhDL7sR-20" value="User: Beam" style="shape=step;perimeter=stepPerimeter;whiteSpace=wrap;html=1;fixedSize=1;fillColor=#fff2cc;strokeColor=#d6b656;" parent="Fx1tfLLrDtZJdJhDL7sR-4" vertex="1">
          <mxGeometry x="10" y="260" width="140" height="60" as="geometry" />
        </mxCell>
        <mxCell id="Fx1tfLLrDtZJdJhDL7sR-37" value="www.github.com" style="shape=hexagon;perimeter=hexagonPerimeter2;whiteSpace=wrap;html=1;fixedSize=1;fillColor=#f5f5f5;strokeColor=#666666;fontColor=#333333;" parent="Fx1tfLLrDtZJdJhDL7sR-4" vertex="1">
          <mxGeometry x="20" y="30" width="130" height="60" as="geometry" />
        </mxCell>
        <mxCell id="Fx1tfLLrDtZJdJhDL7sR-5" value="Git" style="swimlane;whiteSpace=wrap;html=1;fillColor=#f5f5f5;fontColor=#333333;strokeColor=#666666;" parent="1" vertex="1">
          <mxGeometry x="30" y="120" width="480" height="360" as="geometry">
            <mxRectangle x="30" y="120" width="60" height="30" as="alternateBounds" />
          </mxGeometry>
        </mxCell>
        <mxCell id="Fx1tfLLrDtZJdJhDL7sR-51" style="edgeStyle=orthogonalEdgeStyle;rounded=0;orthogonalLoop=1;jettySize=auto;html=1;exitX=0.5;exitY=0;exitDx=0;exitDy=0;entryX=0;entryY=0.5;entryDx=0;entryDy=0;" parent="Fx1tfLLrDtZJdJhDL7sR-5" source="Fx1tfLLrDtZJdJhDL7sR-11" target="Fx1tfLLrDtZJdJhDL7sR-40" edge="1">
          <mxGeometry relative="1" as="geometry" />
        </mxCell>
        <mxCell id="Fx1tfLLrDtZJdJhDL7sR-52" style="edgeStyle=orthogonalEdgeStyle;rounded=0;orthogonalLoop=1;jettySize=auto;html=1;exitX=0.5;exitY=1;exitDx=0;exitDy=0;entryX=0;entryY=0.5;entryDx=0;entryDy=0;" parent="Fx1tfLLrDtZJdJhDL7sR-5" source="Fx1tfLLrDtZJdJhDL7sR-11" target="Fx1tfLLrDtZJdJhDL7sR-41" edge="1">
          <mxGeometry relative="1" as="geometry" />
        </mxCell>
        <mxCell id="Fx1tfLLrDtZJdJhDL7sR-11" value="&lt;font style=&quot;font-size: 13px;&quot;&gt;Local Repository&lt;/font&gt;" style="rounded=1;whiteSpace=wrap;html=1;fillColor=#f8cecc;strokeColor=#b85450;" parent="Fx1tfLLrDtZJdJhDL7sR-5" vertex="1">
          <mxGeometry x="30" y="190" width="90" height="60" as="geometry" />
        </mxCell>
        <mxCell id="Fx1tfLLrDtZJdJhDL7sR-46" style="edgeStyle=orthogonalEdgeStyle;rounded=0;orthogonalLoop=1;jettySize=auto;html=1;exitX=1;exitY=0.5;exitDx=0;exitDy=0;entryX=0;entryY=0.5;entryDx=0;entryDy=0;" parent="Fx1tfLLrDtZJdJhDL7sR-5" source="Fx1tfLLrDtZJdJhDL7sR-40" target="Fx1tfLLrDtZJdJhDL7sR-42" edge="1">
          <mxGeometry relative="1" as="geometry" />
        </mxCell>
        <mxCell id="Fx1tfLLrDtZJdJhDL7sR-40" value="www.bluebolt.github.com" style="rounded=1;whiteSpace=wrap;html=1;fillColor=#ffe6cc;strokeColor=#d79b00;" parent="Fx1tfLLrDtZJdJhDL7sR-5" vertex="1">
          <mxGeometry x="150" y="120" width="160" height="60" as="geometry" />
        </mxCell>
        <mxCell id="Fx1tfLLrDtZJdJhDL7sR-47" style="edgeStyle=orthogonalEdgeStyle;rounded=0;orthogonalLoop=1;jettySize=auto;html=1;exitX=1;exitY=0.5;exitDx=0;exitDy=0;entryX=0;entryY=0.5;entryDx=0;entryDy=0;" parent="Fx1tfLLrDtZJdJhDL7sR-5" source="Fx1tfLLrDtZJdJhDL7sR-41" target="Fx1tfLLrDtZJdJhDL7sR-43" edge="1">
          <mxGeometry relative="1" as="geometry" />
        </mxCell>
        <mxCell id="Fx1tfLLrDtZJdJhDL7sR-41" value="www.beam.github.com" style="rounded=1;whiteSpace=wrap;html=1;fillColor=#ffe6cc;strokeColor=#d79b00;" parent="Fx1tfLLrDtZJdJhDL7sR-5" vertex="1">
          <mxGeometry x="150" y="260" width="160" height="60" as="geometry" />
        </mxCell>
        <mxCell id="Fx1tfLLrDtZJdJhDL7sR-42" value="" style="triangle;whiteSpace=wrap;html=1;fillColor=#fff2cc;strokeColor=#d6b656;" parent="Fx1tfLLrDtZJdJhDL7sR-5" vertex="1">
          <mxGeometry x="450" y="120" width="20" height="60" as="geometry" />
        </mxCell>
        <mxCell id="Fx1tfLLrDtZJdJhDL7sR-43" value="" style="triangle;whiteSpace=wrap;html=1;fillColor=#fff2cc;strokeColor=#d6b656;" parent="Fx1tfLLrDtZJdJhDL7sR-5" vertex="1">
          <mxGeometry x="450" y="260" width="20" height="60" as="geometry" />
        </mxCell>
        <mxCell id="Fx1tfLLrDtZJdJhDL7sR-50" value="git push" style="text;strokeColor=none;align=center;fillColor=none;html=1;verticalAlign=middle;whiteSpace=wrap;rounded=0;" parent="Fx1tfLLrDtZJdJhDL7sR-5" vertex="1">
          <mxGeometry x="70" y="120" width="60" height="30" as="geometry" />
        </mxCell>
        <mxCell id="Fx1tfLLrDtZJdJhDL7sR-53" value="git push" style="text;strokeColor=none;align=center;fillColor=none;html=1;verticalAlign=middle;whiteSpace=wrap;rounded=0;" parent="Fx1tfLLrDtZJdJhDL7sR-5" vertex="1">
          <mxGeometry x="70" y="290" width="60" height="30" as="geometry" />
        </mxCell>
        <mxCell id="Fx1tfLLrDtZJdJhDL7sR-64" value="bluebolt-rsa" style="text;strokeColor=none;align=center;fillColor=none;html=1;verticalAlign=middle;whiteSpace=wrap;rounded=0;" parent="Fx1tfLLrDtZJdJhDL7sR-5" vertex="1">
          <mxGeometry x="370" y="120" width="80" height="30" as="geometry" />
        </mxCell>
        <mxCell id="Fx1tfLLrDtZJdJhDL7sR-65" value="beam&lt;span style=&quot;background-color: initial;&quot;&gt;-rsa&lt;/span&gt;" style="text;strokeColor=none;align=center;fillColor=none;html=1;verticalAlign=middle;whiteSpace=wrap;rounded=0;" parent="Fx1tfLLrDtZJdJhDL7sR-5" vertex="1">
          <mxGeometry x="370" y="260" width="80" height="30" as="geometry" />
        </mxCell>
        <mxCell id="Fx1tfLLrDtZJdJhDL7sR-61" style="edgeStyle=orthogonalEdgeStyle;rounded=0;orthogonalLoop=1;jettySize=auto;html=1;exitX=1;exitY=0.25;exitDx=0;exitDy=0;entryX=0;entryY=0.5;entryDx=0;entryDy=0;startArrow=halfCircle;startFill=0;fillColor=#f5f5f5;strokeColor=#666666;" parent="1" source="Fx1tfLLrDtZJdJhDL7sR-40" target="Fx1tfLLrDtZJdJhDL7sR-37" edge="1">
          <mxGeometry relative="1" as="geometry">
            <Array as="points">
              <mxPoint x="380" y="255" />
              <mxPoint x="380" y="180" />
            </Array>
          </mxGeometry>
        </mxCell>
        <mxCell id="Fx1tfLLrDtZJdJhDL7sR-62" style="edgeStyle=orthogonalEdgeStyle;rounded=0;orthogonalLoop=1;jettySize=auto;html=1;exitX=1;exitY=0.25;exitDx=0;exitDy=0;entryX=0;entryY=0.5;entryDx=0;entryDy=0;startArrow=halfCircle;startFill=0;fillColor=#f5f5f5;strokeColor=#666666;" parent="1" source="Fx1tfLLrDtZJdJhDL7sR-41" target="Fx1tfLLrDtZJdJhDL7sR-37" edge="1">
          <mxGeometry relative="1" as="geometry">
            <Array as="points">
              <mxPoint x="380" y="395" />
              <mxPoint x="380" y="180" />
            </Array>
          </mxGeometry>
        </mxCell>
      </root>
    </mxGraphModel>
  </diagram>
</mxfile>
